<?xml version="1.0" encoding="UTF-8"?>
<svg xmlns="http://www.w3.org/2000/svg" id="_レイヤー_1" data-name="レイヤー 1" width="732.33" height="147.45" viewBox="0 0 732.33 147.45">
  <defs>
    <style>
      .cls-1 {
        fill: #f8ba00;
      }

      .cls-2 {
        fill: #f7bf81;
      }

      .cls-3 {
        fill: #00b2b2;
      }

      .cls-4 {
        fill: #f08e56;
      }

      .cls-5 {
        fill: #e95967;
      }

      .cls-6 {
        fill: #f6cade;
      }

      .cls-7 {
        fill: #fff;
      }

      .cls-8 {
        fill: #ffe200;
      }

      .cls-9 {
        fill: #f08600;
      }

      .cls-10 {
        fill: #98d5f5;
      }

      .cls-11 {
        fill: #97a9b2;
      }

      .cls-12 {
        fill: #009ae0;
      }

      .cls-13 {
        fill: #a091c4;
      }

      .cls-14 {
        fill: #b4b4b5;
      }

      .cls-15 {
        fill: #8a833b;
      }

      .cls-16 {
        fill: #325790;
      }

      .cls-17 {
        fill: #adcd00;
      }

      .cls-18 {
        fill: #a4ca0b;
      }

      .cls-19 {
        fill: #c84b59;
      }

      .cls-20 {
        fill: #dbdcdc;
      }

      .cls-21 {
        fill: #94cfed;
      }

      .cls-22 {
        fill: #548095;
      }

      .cls-23 {
        fill: #63a4ab;
      }
    </style>
  </defs>
  <path class="cls-11" d="m9.33,110.38c-3.4,0-6.42-1.76-8.1-4.72-1.69-2.97-1.63-6.49.14-9.42l16.3-27.07c.14-.23,1.19.51,1.46.47,1.07-.16,5.42.36,7.02,1.97,1.83,1.49,4.44,5.42,4.48,5.44.23.11.41.31.49.56s.05.51-.08.73l-9.06,15.54,22.91-.12-19.55-31.88c-1.24-1.84-.57-4,.29-6.25.01-.04.03-.07.05-.1L47.56,14.85c1.63-3.01,4.64-4.83,8.06-4.88,3.41-.05,6.48,1.69,8.19,4.64l15.03,25.81c.22.38.14.85-.18,1.14-.44.39-4.35,3.83-6.83,4.54-2.32.94-6.32,2.52-6.32,2.52-.42.16-.89,0-1.12-.39l-8.42-14.41-10.53,19.47h38.75c2.08,0,3.92,1.09,4.93,2.91l24.23,39.84c1.79,2.91,1.86,6.43.19,9.41-1.67,2.98-4.71,4.76-8.12,4.76h-30.04c-.25,0-.49-.1-.66-.29-.42-.44-4.08-4.43-3.39-7.2.26-1.85,1.77-5.15,2.67-7.12.2-.44.41-.89.48-1.07,0-.02,0-.04.01-.07.1-.4.47-.68.88-.68h17.34l-11.39-18.57-18.43,31.96c-1.05,1.82-2.93,2.96-4.89,2.96l-48.62.24h-.05Z"></path>
  <path class="cls-7" d="m216.21,100.74c-3.48,0-6.82,1.24-9.59,3.65-4.38,3.8-5.97,9.73-4.25,15.86.84,3.01,2.5,6.09,4.55,8.45,4.6,5.29,11.82,8.45,19.34,8.45,5.66,0,11.26-1.71,16.65-5.09,9.28-5.81,17.08-14.88,23.19-26.96.24-.48.69-.83,1.22-.95.53-.13,1.08,0,1.51.31,1.62,1.21,3.42,2.17,5.38,2.86,4.74,1.69,10.64,1.76,15.62-.79,2.15-1.1,4.13-2.64,5.89-4.57,1.11-1.2,2.21-2.53,3.39-4.09,1.17-1.56,2.39-3.35,3.61-5.32l.51-.82c.27-.44.72-.74,1.22-.83l5.17-.97c1.8-.34,3.52-.69,5.15-1.05l1.13-.25c.89-.2,1.76.25,2.1,1.07.34.81.71,1.65,1.12,2.53.61,1.31,1.3,2.64,2.07,3.94.88,1.49,1.82,2.86,2.81,4.08,1.24,1.54,2.62,2.87,4.1,3.97,4.65,3.44,10.89,4,16.29,1.46,2.08-.98,3.9-2.33,5.4-4,.32-.36,1.07-.93,1.55-.96,1.23-.07,2.42-.33,3.56-.76,2.22-.85,4.34-2.17,6.46-4.03,1.41-1.24,2.82-2.65,4.2-4.19l1.03-1.2c.38-.45.93-.68,1.52-.64.58.04,1.11.36,1.42.85,1.68,2.67,3.84,4.9,6.41,6.63,2.69,1.82,5.82,2.92,9.3,3.27.87.09,1.56.78,1.64,1.65.19,2.13.83,4.24,1.88,6.28.75,1.45,1.68,2.9,2.75,4.3.98,1.28,2.08,2.55,3.28,3.78,1.16,1.19,2.36,2.29,3.55,3.25,1.79,1.45,3.6,2.71,5.37,3.74,1.85,1.07,3.71,1.95,5.52,2.61,1.87.69,3.78,1.19,5.69,1.5,4.1.66,8.37.61,12.69-.72,2.27-.69,4.51-1.7,6.65-2.99,2.02-1.22,3.95-2.69,5.76-4.4,1.91-1.81,3.61-3.87,5.03-6.14.17-.27.33-.55.47-.84.73-1.4,1.42-2.94,2.12-4.72.64-1.62,1.25-3.33,1.81-5.08l.48-1.59c.17-.57.61-1.03,1.18-1.21.58-.18,1.19-.09,1.67.27,1.3.97,2.54,1.71,3.8,2.28,5.21,2.32,10.65,2.41,16.11.78,2.02-.6,4.11-1.46,6.22-2.56.7-.37,1.41-.84,2.22-1.48.61-.48,1.47-.52,2.13-.1,1.2.79,2.24,1.37,3.27,1.83,5.88,2.65,13.15,3.03,20.32.86,2.79-.84,5.54-2.01,8.19-3.47,2.55-1.41,5.03-3.09,7.35-4.99,2.3-1.88,4.39-3.9,6.4-6.17.47-.54,1.24-.8,1.94-.58.68.21,1.22.76,1.31,1.47.28,2.2.77,4.28,1.45,6.19.89,2.5,2.17,4.84,3.79,6.94,1.67,2.15,3.78,4.07,6.3,5.71,2.87,1.88,6.5,2.43,9.81,1.47,3.62-1.05,6.52-2.44,8.87-4.26,3.54-2.75,5.73-6.63,6.17-10.91.06-.59.4-1.11.92-1.41.52-.3,1.14-.32,1.68-.06l.59.28c3.25,1.51,6.47,2.89,9.6,4.11,8.14,3.09,12.97,3.39,18.05,1.71.71-.23,1.49-.01,1.97.56,2.02,2.39,4.43,4.3,7.16,5.68,5.85,2.96,13.36,3.35,20.64.02.82-.37,1.63-.8,2.45-1.26.6-.34,1.36-.3,1.93.09,2.76,1.91,6.01,2.92,9.4,2.92,4.87,0,9.64-1.1,14.17-3.27,3.33-1.59,6.58-3.81,9.66-6.58.68-.61,1.71-.62,2.41-.03,2.29,1.94,6.26,4.25,12.21,4.25.02,0,.66-.04.68-.04.8-.08,1.62.53,1.84,1.36.83,3.1,2.29,5.27,3.38,6.54,4.54,5.3,12.56,7.05,20.48,4.02,2.06-.79,4.1-1.86,6.07-3.16,1.91-1.27,3.74-2.79,5.46-4.51,1.75-1.76,3.32-3.72,4.66-5.81,1.38-2.17,2.51-4.49,3.34-6.9.98-2.8,1.47-5.71,1.47-8.64,0-3.07-.62-6.04-1.85-8.83-.94-2.11-2.16-4.14-3.61-6.01-1.06-1.36-2.22-2.68-3.47-3.93-.61-.61-.71-1.57-.24-2.29.76-1.17,1.44-2.41,2-3.69,1.05-2.36,1.57-4.81,1.57-7.27,0-6.03-2.39-9.8-4.4-11.91-4.83-5.06-13.15-6.51-20.37-2.5l-.36.22c-.61.38-1.53.45-2.13.04-.6-.41-1.04-1.04-.92-1.75l1.15-6.44c.26-1.5.38-2.72.38-3.81,0-2.64-.76-5.27-2.2-7.59-1.09-1.75-2.51-3.28-4.24-4.54-1.37-.99-2.89-1.81-4.53-2.42-1.94-.72-4-1.09-6.1-1.09-4.81,0-8.13,1.82-10.08,3.35-1.94,1.53-3.49,3.39-4.75,5.68-1.06,1.95-1.72,4.26-2.15,7.48-.2,1.52-.37,3.22-.51,5.11-.06.86-.71,1.56-1.56,1.68-1.66.24-3.26.61-4.76,1.1-2.92.96-5.66,2.39-8.15,4.26-2.21,1.66-4.3,3.7-6.21,6.04-1.58,1.95-3.16,4.15-4.69,6.56-1.5,2.32-2.92,4.79-4.22,7.36-.4.78-1.3,1.18-2.14.93-.84-.24-1.39-1.06-1.31-1.93.11-1.17.19-2.33.19-3.43,0-3.06-.64-5.79-1.92-8.13-.44-.81-.21-1.83.55-2.37,1.75-1.24,3.22-2.78,4.39-4.59,1.15-1.75,2.04-3.64,2.65-5.63.62-2.03.93-4.16.93-6.36,0-2.61-.49-5.03-1.47-7.19-1.19-2.65-3.09-4.89-5.49-6.48-1.84-1.21-3.94-2.04-6.25-2.47-1.47-.27-3.03-.41-4.75-.41-3.24,0-6.46,1.07-9.32,3.1-1.78,1.27-3.4,2.83-4.82,4.65-.45.58-.87,1.19-1.27,1.81-.3.47-.8.77-1.36.83-.54.05-1.1-.15-1.49-.54-.68-.7-1.39-1.36-2.14-1.95-3.35-2.6-6.61-3.15-8.75-3.15s-4.42.5-6.46,1.49c-1.18.57-2.31,1.27-3.36,2.09-.84.66-1.63,1.38-2.29,2.09-.41.42-.72.77-.96,1.04-1.19,1.36-2.25,2.61-3.3,3.9l-1.81,2.22c-.45.55-1.17.8-1.86.63-.69-.17-1.22-.72-1.36-1.42-.87-4.35-3.73-8.11-8.06-10.57-7.09-4.15-15.88-3.07-21.37,2.69-3.27,3.62-4.87,7.63-4.87,11.85,0,.44.02,1.04.09,1.85.04.47.1.95.16,1.36.02.11.04.35.03.45l-.73,22.45c-.02.65-.39,1.25-.97,1.56-.58.31-1.27.28-1.83-.06-1.2-.75-2.47-1.3-3.76-1.63-.9-.23-1.48-1.08-1.37-2,.15-1.18.21-2.38.21-3.59,0-2.43-.45-4.86-1.32-7.23-.88-2.38-2.17-4.55-3.82-6.46-1.71-1.97-3.78-3.59-6.16-4.82-5.29-2.74-12.01-2.7-17.62-.67-2.34.85-4.53,1.97-6.53,3.35-1.67,1.15-3.27,2.5-4.75,4.01-.58.59-1.47.72-2.18.33-.72-.39-1.09-1.21-.91-2.01.36-1.59.64-2.82.76-3.33.38-1.58.73-3.08,1.04-4.52.33-1.53.6-2.94.83-4.24.31-1.82.45-3.43.45-4.94,0-1.27-.07-2.49-.23-3.59-.32-2.4-1.11-4.58-2.37-6.5-1.56-2.4-3.83-4.3-6.55-5.48-4.83-2.09-11.64-1.83-16.61,2.12-1.64,1.3-3.11,2.89-4.37,4.71-1.01,1.46-1.91,3.03-2.65,4.66-.74,1.61-1.33,3.22-1.69,4.65-.27,1.01-.55,2.16-.83,3.48l-1.56,7.36c-.11.52-.45.97-.92,1.22-.47.25-1.03.29-1.52.1-.87-.33-1.77-.62-2.71-.85-3.59-.84-7.91-.74-11.87.27-1.82.46-3.66,1.1-5.47,1.9-1.66.74-3.29,1.6-4.85,2.57-1.41.87-2.8,1.82-4.19,2.86-3.52,2.68-6.66,5.6-9.31,8.66-.87,1-1.68,2.02-2.46,3.04-.06.08-.4.41-.47.48-.17.15-.33.31-.48.47-.63.68-1.29,1.44-2,2.31-.45.55-.91,1.11-1.3,1.57l-1.52,1.7c-.45.5-1.16.72-1.81.54-.66-.17-1.17-.69-1.33-1.35-.5-2.14-1.18-4.13-2.02-5.92-1.55-3.3-3.75-5.99-6.54-7.99-5.28-3.8-13.26-4.4-19.52-1.98-.67.26-1.44.1-1.96-.41-.9-.9-1.9-1.68-2.97-2.32-3.07-1.83-6.58-2.3-10.26-1.82-1.78.24-3.5.76-5.1,1.57s-3.16,1.95-4.53,3.37c-.57.59-1.08,1.24-1.57,1.94-.4.57-1.08.87-1.78.76-.69-.11-1.26-.6-1.47-1.26l-.33-1.04c-.59-1.74-1.22-3.5-1.89-5.29-.29-.77-.59-1.53-.89-2.29-.1-.25-.14-.51-.13-.78.03-.53.04-1.14.04-1.81v-2.24c0-1.74-.13-3.28-.38-4.71-.5-2.69-1.6-5.08-3.27-7.09-1.92-2.31-4.54-3.95-7.56-4.75-1.65-.44-3.46-.65-5.53-.65-11.84,0-16.94,13.88-19.68,21.34-.01.04-.17.38-.18.42-.21.46-.43.91-.68,1.39l-1.01,1.95c-.29.56-.59,1.12-.94,1.72l-2.51,4.4c-.84,1.25-1.78,2.63-2.91,4.25-1.29,1.87-2.78,4.12-4.44,6.7-.44.67-1.26.98-2.03.77-.77-.21-1.32-.91-1.34-1.71-.03-1.11-.09-2.15-.21-3.09-.34-2.64-1.2-4.99-2.58-7-1.8-2.64-4.36-4.55-7.43-5.55-3.55-1.15-8.21-1.37-12.42.63-1.67.8-3.22,1.89-4.61,3.24-.79.77-1.53,1.64-2.2,2.58-.33.47-.86.75-1.44.77-.44.02-1.12-.23-1.48-.68-1.33-1.64-2.96-2.97-4.85-3.94-4.43-2.27-10.52-2.38-15.41.33-.62.34-1.39.3-1.97-.12-1.03-.75-2.12-1.39-3.25-1.91-3.44-1.57-6.93-2.05-11.79-1.17-.58.1-1.17-.07-1.6-.48-.42-.41-.62-.99-.54-1.57.12-.88.2-1.78.2-2.71,0-1.46-.22-2.94-.68-4.51-.36-1.25-.88-2.5-1.53-3.73-.71-1.33-1.58-2.57-2.58-3.68-1.71-1.9-3.86-3.32-6.23-4.13-1.22-.42-2.49-.75-3.8-.98-1.01-.18-1.98-.31-2.9-.4-.92-.09-1.74-.14-2.48-.16-.66-.02-1.14-.03-1.44-.03-2.32,0-9.77.55-12.09.89-2.05.3-4.15.69-6.23,1.15-1.86.41-3.72.84-5.59,1.29-1.63.39-3.26.75-4.89,1.09l-2.12.37c-1.03.18-2.2.37-3.52.58l-4.26.66c-1.45.22-2.82.42-4.09.6-1.25.17-2.34.32-3.27.44l-.71.09c-2.44.02-4.73.17-6.98.44-2.5.3-4.83.75-6.93,1.34-2.01.56-3.83,1.41-5.4,2.53-1.92,1.38-3.45,3.11-4.54,5.16-.83,1.56-1.39,3.22-1.69,4.95-.19,1.16-.29,2.35-.29,3.53,0,.76.02,1.69.22,2.76.46,3.62,2.21,6.81,4.93,9.08,1.6,1.34,3.44,2.37,5.46,3.07,1.49.52,3.05.87,4.62,1.04,3.03.34,4.88.2,7.27.03.53-.04,1.06.16,1.44.55.37.39.56.92.51,1.45-.23,2.34-.44,4.64-.64,6.91-.21,2.5-.39,4.84-.54,7.03-.16,2.38-.23,4.35-.23,6.01,0,.92.02,1.96.04,3.12.03,1.23.1,2.47.2,3.75.1,1.28.24,2.54.41,3.79.24,1.74.59,3.28,1.05,4.72.53,1.65,1.29,3.23,2.23,4.69.96,1.49,2.1,2.83,3.39,3.98,1.29,1.15,2.69,2.11,4.18,2.85,5.07,2.53,10.92,2.02,15.41-1,1.92-1.31,3.54-2.99,4.8-4.98.44-.7.83-1.44,1.18-2.2.3-.66.92-1.03,1.69-1.06.72.01,1.37.44,1.66,1.11.79,1.85,1.77,3.45,2.91,4.77,4.57,5.29,12.26,6.73,18.51,3.45,1.46-.77,2.82-1.74,4.04-2.88,1.13-1.06,2.12-2.23,2.93-3.48,1.07-1.65,1.81-3.4,2.18-5.2.26-1.15.41-2.32.45-3.5.02-.54.02-1.14.02-1.78,0-1.99-.13-3.94-.38-5.79-.06-.43.04-.87.28-1.23.42-.66.86-1.3,1.33-1.9.59-.78,1.12-1.46,1.52-1.95.36-.44.81-.9,1.29-1.38.54-.53,1.36-.67,2.04-.36.69.32,1.11,1.03,1.07,1.78-.05.7-.08,1.38-.08,2.01,0,2.72.53,5.46,1.58,8.15,1.04,2.66,2.57,5.1,4.55,7.28.98,1.07,2.07,2.05,3.25,2.93.72.54.94,1.52.52,2.32-.42.8-1.35,1.18-2.21.88-1.68-.58-3.38-.86-5.04-.86Z"></path>
  <path class="cls-7" d="m19.6,69.67L2.93,97.19c-1.42,2.35-1.46,5.18-.11,7.57,1.35,2.38,3.78,3.79,6.51,3.79h.04l48.62-.24c1.32,0,2.58-.78,3.31-2.05l19.19-33.28c.16-.28.46-.45.78-.46h.01c.32,0,.61.16.78.44l13.04,21.27c.17.28.18.63.02.92-.16.29-.47.47-.8.47h-18.35c-.09.22-.21.47-.34.76-.8,1.76-2.3,5.03-2.54,6.71-.32,1.3,1.29,3.77,2.66,5.31h29.64c2.75,0,5.19-1.43,6.53-3.83,1.34-2.4,1.29-5.23-.15-7.57l-24.25-39.87c-.7-1.26-1.95-2-3.35-2h-40.28c-.32,0-.62-.17-.78-.45-.16-.28-.17-.62-.02-.9l12.03-22.24c.16-.29.46-.47.79-.48.31.02.64.17.8.45l8.84,15.13c1.26-.5,3.9-1.54,5.67-2.26,1.59-.46,4.24-2.51,5.64-3.7l-14.65-25.16c-1.36-2.35-3.77-3.74-6.47-3.74-.04,0-.08,0-.11,0-2.75.04-5.17,1.51-6.48,3.92l-21.86,40.64c-.82,2.15-1.13,3.52-.44,4.55l20.42,33.29c.17.28.18.63.02.92-.16.29-.46.47-.79.47l-26.14.14h0c-.33,0-.63-.17-.79-.46-.16-.28-.16-.63,0-.92l10.69-18.17c-1.34-.67-3.85-1.99-5.35-3.21-1.32-1.32-4.13-2.81-5.33-3.29Z"></path>
  <g>
    <path class="cls-8" d="m105.05,102.47h-30.84v-1.83h30.84c.2,0,.3-.12.34-.2.04-.07.1-.22,0-.39l-20.93-32.14,1.53-1,20.95,32.17c.43.73.44,1.56.04,2.26-.4.7-1.12,1.12-1.92,1.12Z"></path>
    <path class="cls-18" d="m56.87,102.53l-45.34-.21c-.81,0-1.54-.43-1.94-1.13-.41-.7-.41-1.54,0-2.25l14.57-25.34,1.58.91-14.57,25.34c-.11.19-.05.35,0,.43.05.08.16.21.37.22l45.34.21v1.83Z"></path>
    <path class="cls-6" d="m37.71,54.28l-1.6-.87,18.17-33.31c.39-.69,1.08-1.1,1.86-1.1.76-.02,1.48.39,1.87,1.07l14.73,25.43-1.58.91-14.73-25.43c-.08-.14-.21-.15-.28-.16-.07,0-.2.02-.27.16l-18.16,33.3Z"></path>
    <rect class="cls-10" x="38.62" y="61.97" width="26.93" height="1.83"></rect>
    <path class="cls-11" d="m61.93,89.6c-.17,0-.34-.05-.49-.14-.43-.27-.55-.83-.28-1.26l13.85-21.87c.27-.43.83-.55,1.26-.28.43.27.55.83.28,1.26l-13.85,21.87c-.17.27-.47.42-.77.42Z"></path>
    <rect class="cls-2" x="49" y="70.32" width="1.82" height="26.86" transform="translate(-37.25 40.06) rotate(-32.58)"></rect>
    <path class="cls-11" d="m62.79,88.79c-.3,0-.59-.14-.76-.41l-10.14-15.28c-.28-.42-.16-.99.26-1.26.42-.28.99-.16,1.27.26l10.14,15.28c.28.42.16.99-.26,1.26-.16.1-.33.15-.5.15Z"></path>
    <path class="cls-11" d="m60.17,73.16h0l-21.82-.06c-.5,0-.91-.41-.91-.91,0-.5.41-.91.91-.91h0l21.82.06c.5,0,.91.41.91.91,0,.5-.41.91-.91.91Z"></path>
    <path class="cls-11" d="m56.54,79.3c-.17,0-.33-.05-.49-.14-.43-.27-.55-.83-.28-1.26l12.11-19.18c.27-.43.83-.55,1.26-.28.43.27.55.83.28,1.26l-12.11,19.18c-.17.27-.47.43-.77.43Z"></path>
    <g>
      <polygon class="cls-6" points="75.59 36.95 67.25 36.95 63.08 44.18 65.81 48.79 74.16 48.79 78.33 41.56 75.59 36.95"></polygon>
      <path class="cls-11" d="m74.16,49.74h-8.34c-.34,0-.65-.18-.82-.47l-2.73-4.61c-.18-.3-.18-.67,0-.97l4.17-7.22c.17-.3.49-.48.83-.48h8.34c.34,0,.65.18.82.47l2.73,4.61c.18.3.18.67,0,.97l-4.17,7.22c-.17.3-.49.48-.83.48Zm-7.8-1.91h7.25l3.62-6.26-2.17-3.66h-7.25l-3.62,6.26,2.17,3.66Z"></path>
    </g>
    <path class="cls-11" d="m74.16,49.74h-8.34c-.34,0-.65-.18-.82-.47l-2.73-4.61c-.18-.3-.18-.67,0-.97l4.17-7.22c.17-.3.49-.48.83-.48h8.34c.34,0,.65.18.82.47l2.73,4.61c.18.3.18.67,0,.97l-4.17,7.22c-.17.3-.49.48-.83.48Zm-7.8-1.91h7.25l3.62-6.26-2.17-3.66h-7.25l-3.62,6.26,2.17,3.66Z"></path>
    <polygon class="cls-8" points="73.41 94.7 69.13 101.86 73.18 109.15 78.54 109.17 82.83 102.01 78.77 94.72 73.41 94.7"></polygon>
    <path class="cls-11" d="m78.67,110.23h0l-5.36-.02c-.34,0-.66-.19-.83-.48l-4.19-7.39c-.17-.3-.17-.67.01-.96l4.29-7.16c.17-.29.48-.46.82-.46h0l5.36.02c.35,0,.66.19.83.49l4.05,7.29c.16.29.16.65,0,.94l-4.15,7.26c-.17.3-.49.48-.83.48Zm-4.8-1.93l4.25.02,3.61-6.31-3.52-6.33-4.25-.02-3.72,6.21,3.64,6.42Z"></path>
    <polygon class="cls-2" points="61.86 86.61 52.08 86.61 47.19 95.08 50.39 101.75 60.18 101.75 65.57 92.63 61.86 86.61"></polygon>
    <path class="cls-11" d="m60.17,102.53h-9.54c-.34,0-.65-.19-.81-.49l-3.45-6.53c-.15-.28-.14-.61.02-.88l4.89-8.47c.16-.28.46-.46.79-.46h9.78c.32,0,.61.16.78.43l3.71,6.03c.18.29.18.66,0,.95l-5.4,8.98c-.17.27-.46.44-.78.44Zm-8.99-1.83h8.47l4.84-8.06-3.15-5.12h-8.75l-4.38,7.58,2.96,5.6Z"></path>
    <polygon class="cls-20" points="65.38 63.7 71.65 74.34 81.42 73.76 85.22 67.42 79.84 59.25 68.57 58.62 65.38 63.7"></polygon>
    <path class="cls-11" d="m81.42,74.68s-.01,0-.02,0l-10.22-.2c-.32,0-.61-.18-.77-.46l-5.39-9.38c-.16-.28-.16-.63,0-.91l2.84-4.98c.16-.28.46-.46.79-.46h0l11.19.04c.31,0,.59.16.76.41l5.38,8.17c.19.29.2.67.02.97l-3.81,6.35c-.16.28-.46.44-.78.44Zm-9.68-2.01l9.17.18,3.24-5.4-4.8-7.28-10.17-.04-2.32,4.06,4.87,8.48Z"></path>
    <polygon class="cls-21" points="43.68 72.86 49.72 62.09 44.31 53.94 36.91 53.84 32.56 62.61 37.7 72.66 43.68 72.86"></polygon>
    <path class="cls-11" d="m38.15,73.21c-.33,0-.63-.17-.79-.46l-5.59-9.69c-.15-.26-.16-.59-.03-.86l4.35-8.76c.16-.31.47-.48.83-.51l7.4.09c.34,0,.64.19.8.49l4.66,8.95c.14.27.14.59,0,.86l-5.08,9.36c-.16.29-.46.47-.79.48l-5.73.05h0Zm5.73-.96h0,0Zm-10.29-9.67l5.08,8.8,4.66-.04,4.59-8.46-4.18-8.03-6.28-.08-3.88,7.81Z"></path>
    <polygon class="cls-18" points="31.22 76.27 27.05 69.04 18.71 69.04 16.08 73.71 20.26 80.94 28.6 80.94 31.22 76.27"></polygon>
    <path class="cls-11" d="m28.12,82.43h0l-8.03-.06c-.34,0-.65-.18-.82-.48l-4.17-7.22c-.17-.29-.17-.65,0-.95l2.62-4.67c.17-.3.49-.49.83-.49h8.34c.34,0,.66.18.83.48l4.17,7.22c.18.3.17.68-.02.98l-2.94,4.74c-.17.28-.48.45-.81.45Zm-7.47-1.97l6.94.06,2.35-3.79-3.61-6.25h-7.23l-2.08,3.71,3.63,6.28Z"></path>
  </g>
  <g>
    <path class="cls-14" d="m226.25,140.82c-8.56,0-16.82-3.63-22.1-9.71-2.39-2.76-4.32-6.35-5.31-9.87-1.25-4.48-1.05-8.88.47-12.72-.25.14-.49.28-.75.41-2.79,1.47-5.78,2.21-8.87,2.21-5.48,0-10.5-2.31-14.11-6.51-.67-.78-1.3-1.64-1.87-2.57-1.49,2.22-3.34,4.09-5.54,5.58-5.57,3.77-12.85,4.36-19.09,1.25-1.78-.89-3.46-2.03-4.99-3.4-1.53-1.37-2.89-2.96-4.02-4.72-1.12-1.73-2.01-3.6-2.64-5.55-.53-1.65-.93-3.4-1.2-5.36-.18-1.33-.33-2.65-.43-4.01-.11-1.35-.17-2.65-.21-3.93-.04-1.2-.05-2.27-.05-3.22,0-1.72.08-3.76.24-6.25.15-2.22.33-4.58.55-7.1.14-1.59.28-3.2.44-4.83-1.83.07-3.4.11-5.78-.16-1.84-.21-3.66-.62-5.41-1.23-2.44-.85-4.66-2.1-6.61-3.72-3.44-2.86-5.64-6.88-6.2-11.33-.24-1.26-.27-2.44-.27-3.31,0-1.39.12-2.78.35-4.14.35-2.12,1.05-4.16,2.06-6.07,1.36-2.55,3.26-4.7,5.64-6.41,1.92-1.38,4.13-2.41,6.55-3.09,2.28-.63,4.79-1.12,7.48-1.44,2.39-.29,4.82-.44,7.22-.46l.44-.06c.93-.12,2-.26,3.23-.43,1.26-.18,2.61-.37,4.05-.6l4.25-.66c1.3-.2,2.45-.39,3.46-.57l2.03-.35c1.56-.32,3.15-.67,4.75-1.06,1.88-.45,3.76-.89,5.64-1.3,2.18-.48,4.36-.89,6.5-1.2,2.53-.37,10.07-.92,12.61-.92.32,0,.83,0,1.55.03.82.03,1.72.08,2.73.18,1.01.1,2.07.24,3.18.43,1.5.26,2.97.64,4.36,1.12,2.95,1,5.64,2.78,7.76,5.14,1.2,1.33,2.24,2.81,3.09,4.4.77,1.45,1.38,2.94,1.82,4.43.56,1.91.83,3.72.83,5.54,0,.28,0,.55-.02.82,4.38-.46,8.08.18,11.6,1.79,1.02.46,2,1.01,2.95,1.63,5.76-2.78,12.63-2.52,17.83.14,1.67.86,3.18,1.94,4.5,3.22.4-.46.81-.9,1.24-1.32,1.67-1.64,3.55-2.96,5.59-3.93,5.04-2.4,10.71-2.25,15.12-.81,3.84,1.24,7.07,3.65,9.32,6.96,1.38,2.02,2.35,4.3,2.88,6.8.59-.89,1.15-1.72,1.69-2.49,1.12-1.62,2.06-2.98,2.82-4.11l2.44-4.28c.32-.56.6-1.07.87-1.59l1-1.94c.22-.43.42-.84.6-1.23,3.12-8.46,8.8-23.9,23.19-23.9,2.39,0,4.51.25,6.47.77,3.76,1,7.02,3.05,9.44,5.95,2.08,2.51,3.44,5.46,4.06,8.78.3,1.65.45,3.4.45,5.37v2.24c0,.58-.01,1.12-.03,1.61.26.66.51,1.32.77,1.99.42,1.14.83,2.26,1.22,3.38,1.59-1.6,3.36-2.89,5.27-3.84,1.97-.98,4.07-1.63,6.26-1.92,4.55-.59,8.84.06,12.61,2.3,1,.59,1.95,1.29,2.83,2.07,2.64-.88,5.46-1.33,8.4-1.33,5.04,0,9.7,1.43,13.47,4.15,3.31,2.37,5.9,5.54,7.73,9.41.49,1.05.93,2.15,1.32,3.31.17-.2.34-.4.5-.61.77-.94,1.47-1.75,2.15-2.48.21-.23.43-.44.66-.65.9-1.12,1.75-2.19,2.67-3.25,2.82-3.25,6.13-6.34,9.86-9.18,1.49-1.12,2.97-2.12,4.48-3.06,1.7-1.05,3.48-1.99,5.28-2.8,2-.88,4.03-1.59,6.05-2.1,4.5-1.15,9.47-1.26,13.61-.28.4.09.79.2,1.17.31l1.13-5.33c.3-1.41.6-2.62.88-3.66.41-1.62,1.07-3.44,1.9-5.25.83-1.83,1.84-3.58,2.97-5.22,1.46-2.11,3.18-3.96,5.1-5.49,3.5-2.78,7.61-4.26,11.9-4.26,3.07,0,5.91.55,8.44,1.65,3.39,1.47,6.21,3.84,8.16,6.84,1.55,2.38,2.54,5.08,2.93,8,.17,1.24.26,2.62.26,4.09,0,1.71-.17,3.53-.51,5.55-.23,1.35-.51,2.82-.86,4.4-.17.77-.34,1.57-.53,2.38.3-.22.61-.44.92-.65,2.25-1.55,4.73-2.82,7.36-3.77,6.56-2.38,14.34-2.36,20.56.86,2.78,1.44,5.22,3.36,7.23,5.68,1.94,2.24,3.45,4.79,4.49,7.59,1.03,2.78,1.56,5.64,1.56,8.5,0,.84-.03,1.68-.09,2.51.19.07.38.14.58.22l.63-19.56c-.07-.28-.13-.82-.18-1.37-.08-.97-.11-1.66-.11-2.18,0-5.14,1.93-10,5.58-14.05,0-.01.28-.31.29-.31,6.67-6.99,17.38-8.32,25.86-3.34,4.09,2.33,7.12,5.66,8.77,9.58.96-1.17,1.94-2.32,2.93-3.45.41-.45.75-.82,1.17-1.26.77-.83,1.71-1.69,2.69-2.46,1.26-.98,2.61-1.83,4.02-2.51,2.54-1.23,5.26-1.85,8.05-1.85s6.84.68,11,3.92c.32.25.62.5.92.76.07-.09.14-.18.21-.27,1.64-2.1,3.52-3.91,5.59-5.39,3.48-2.47,7.43-3.77,11.44-3.77,1.95,0,3.72.15,5.41.47,2.8.52,5.35,1.53,7.61,3.02,2.98,1.98,5.33,4.75,6.81,8.03,1.19,2.64,1.79,5.56,1.79,8.7,0,2.55-.37,5.05-1.09,7.43-.71,2.32-1.75,4.53-3.08,6.56-1.13,1.75-2.5,3.3-4.1,4.63.7,1.59,1.18,3.3,1.44,5.12.32-.53.65-1.05.98-1.56,1.6-2.51,3.26-4.84,4.94-6.89,2.09-2.58,4.4-4.81,6.85-6.66,2.8-2.11,5.9-3.73,9.21-4.81,1.26-.41,2.57-.75,3.92-1,.12-1.41.26-2.7.41-3.9.49-3.68,1.28-6.37,2.57-8.75,1.49-2.7,3.4-4.99,5.7-6.8,2.4-1.89,6.49-4.13,12.34-4.13,2.54,0,5.03.44,7.37,1.31,1.95.72,3.78,1.7,5.42,2.89,2.11,1.54,3.85,3.41,5.19,5.56,1.8,2.91,2.76,6.2,2.76,9.52,0,1.31-.14,2.72-.43,4.44l-.51,2.86c7.97-3.21,16.81-1.19,22.18,4.43,2.47,2.59,5.41,7.2,5.41,14.44,0,2.97-.64,5.92-1.89,8.75-.45,1.01-.95,2-1.51,2.95.98,1.04,1.9,2.12,2.76,3.23,1.64,2.11,3.01,4.39,4.07,6.77h0c1.44,3.26,2.17,6.72,2.17,10.31,0,3.34-.56,6.65-1.68,9.83-.93,2.68-2.18,5.27-3.72,7.67-1.48,2.32-3.22,4.48-5.15,6.42-1.89,1.9-3.92,3.58-6.03,4.98-2.19,1.46-4.47,2.65-6.79,3.54-9.36,3.59-19.02,1.42-24.56-5.06-1.16-1.36-2.68-3.55-3.71-6.58-5.78-.13-9.97-2.14-12.74-4.14-3,2.54-6.14,4.6-9.37,6.15-5.02,2.41-10.32,3.63-15.75,3.63-3.76,0-7.37-1.01-10.52-2.94-.58.31-1.16.6-1.75.87-8.29,3.78-16.98,3.37-23.81-.09-2.81-1.42-5.32-3.33-7.5-5.67-5.58,1.52-10.93,1.06-19.34-2.13-2.71-1.05-5.48-2.22-8.26-3.48-1.02,4.29-3.5,8.11-7.14,10.95-2.71,2.11-6.02,3.71-10.1,4.88-4.32,1.25-9.07.53-12.83-1.92-2.86-1.87-5.27-4.07-7.19-6.54-1.86-2.4-3.33-5.08-4.35-7.95-.37-1.05-.7-2.14-.96-3.27-1.41,1.42-2.85,2.73-4.38,3.98-2.49,2.04-5.15,3.85-7.9,5.37-2.88,1.58-5.87,2.85-8.91,3.77-8.02,2.42-16.19,1.97-22.87-1.03-.88-.4-1.75-.86-2.69-1.42-.6.42-1.18.77-1.75,1.07-2.31,1.21-4.62,2.15-6.86,2.82-6.31,1.88-12.63,1.72-18.64-.95-.81-.36-1.6-.77-2.39-1.25-.52,1.58-1.08,3.12-1.66,4.6-.76,1.92-1.5,3.57-2.27,5.05-.19.37-.4.74-.63,1.1-1.59,2.53-3.48,4.84-5.62,6.86-2,1.88-4.15,3.52-6.39,4.87-2.4,1.44-4.91,2.57-7.47,3.35-4.84,1.48-9.68,1.57-14.34.83-2.14-.35-4.29-.91-6.37-1.68-2.01-.73-4.06-1.7-6.09-2.88-1.94-1.12-3.91-2.49-5.84-4.07-1.3-1.06-2.6-2.24-3.86-3.53-1.3-1.33-2.5-2.72-3.57-4.13-1.19-1.57-2.23-3.2-3.08-4.83-1.03-2-1.73-4.06-2.09-6.16-3.51-.55-6.71-1.79-9.52-3.69-2.33-1.57-4.37-3.48-6.08-5.72-1.33,1.46-2.69,2.8-4.06,3.99-2.45,2.15-4.93,3.68-7.56,4.69-1.24.47-2.53.78-3.85.93-1.8,1.95-3.94,3.53-6.39,4.69-6.62,3.12-14.3,2.42-20.04-1.83-1.72-1.28-3.33-2.83-4.77-4.6-1.1-1.35-2.15-2.88-3.12-4.53-.82-1.41-1.57-2.84-2.23-4.25-.19-.42-.38-.84-.56-1.25-1.57.34-3.22.67-4.93,1l-4.47.95c-1.28,2.07-2.56,3.95-3.8,5.59-1.25,1.65-2.43,3.08-3.62,4.36-2.04,2.24-4.37,4.05-6.91,5.35-5.86,3.01-12.84,3-18.51.98-1.61-.57-3.14-1.3-4.57-2.18-6.27,11.77-14.19,20.7-23.55,26.57-5.98,3.75-12.23,5.65-18.59,5.65Zm-10.04-40.08c-3.48,0-6.82,1.24-9.59,3.65-4.38,3.8-5.97,9.73-4.25,15.86.84,3.01,2.5,6.09,4.55,8.45,4.6,5.29,11.82,8.45,19.34,8.45,5.66,0,11.26-1.71,16.65-5.09,9.28-5.81,17.08-14.88,23.19-26.96.24-.48.69-.83,1.22-.95.53-.13,1.08,0,1.51.31,1.62,1.21,3.42,2.17,5.38,2.86,4.74,1.69,10.64,1.76,15.62-.79,2.15-1.1,4.13-2.64,5.89-4.57,1.11-1.2,2.21-2.53,3.39-4.09,1.17-1.56,2.39-3.35,3.61-5.32l.51-.82c.27-.44.72-.74,1.22-.83l5.17-.97c1.8-.34,3.52-.69,5.15-1.05l1.13-.25c.89-.2,1.76.25,2.1,1.07.34.81.71,1.65,1.12,2.53.61,1.31,1.3,2.64,2.07,3.94.88,1.49,1.82,2.86,2.81,4.08,1.24,1.54,2.62,2.87,4.1,3.97,4.65,3.44,10.89,4,16.29,1.46,2.08-.98,3.9-2.33,5.4-4,.32-.36,1.07-.93,1.55-.96,1.23-.07,2.42-.33,3.56-.76,2.22-.85,4.34-2.17,6.46-4.03,1.41-1.24,2.82-2.65,4.2-4.19l1.03-1.2c.38-.45.93-.68,1.52-.64.58.04,1.11.36,1.42.85,1.68,2.67,3.84,4.9,6.41,6.63,2.69,1.82,5.82,2.92,9.3,3.27.87.09,1.56.78,1.64,1.65.19,2.13.83,4.24,1.88,6.28.75,1.45,1.68,2.9,2.75,4.3.98,1.28,2.08,2.55,3.28,3.78,1.16,1.19,2.36,2.29,3.55,3.25,1.79,1.45,3.6,2.71,5.37,3.74,1.85,1.07,3.71,1.95,5.52,2.61,1.87.69,3.78,1.19,5.69,1.5,4.1.66,8.37.61,12.69-.72,2.27-.69,4.51-1.7,6.65-2.99,2.02-1.22,3.95-2.69,5.76-4.4,1.91-1.81,3.61-3.87,5.03-6.14.17-.27.33-.55.47-.84.73-1.4,1.42-2.94,2.12-4.72.64-1.62,1.25-3.33,1.81-5.08l.48-1.59c.17-.57.61-1.03,1.18-1.21.58-.18,1.19-.09,1.67.27,1.3.97,2.54,1.71,3.8,2.28,5.21,2.32,10.65,2.41,16.11.78,2.02-.6,4.11-1.46,6.22-2.56.7-.37,1.41-.84,2.22-1.48.61-.48,1.47-.52,2.13-.1,1.2.79,2.24,1.37,3.27,1.83,5.88,2.65,13.15,3.03,20.32.86,2.79-.84,5.54-2.01,8.19-3.47,2.55-1.41,5.03-3.09,7.35-4.99,2.3-1.88,4.39-3.9,6.4-6.17.47-.54,1.24-.8,1.94-.58.68.21,1.22.76,1.31,1.47.28,2.2.77,4.28,1.45,6.19.89,2.5,2.17,4.84,3.79,6.94,1.67,2.15,3.78,4.07,6.3,5.71,2.87,1.88,6.5,2.43,9.81,1.47,3.62-1.05,6.52-2.44,8.87-4.26,3.54-2.75,5.73-6.63,6.17-10.91.06-.59.4-1.11.92-1.41.52-.3,1.14-.32,1.68-.06l.59.28c3.25,1.51,6.47,2.89,9.6,4.11,8.14,3.09,12.97,3.39,18.05,1.71.71-.23,1.49-.01,1.97.56,2.02,2.39,4.43,4.3,7.16,5.68,5.85,2.96,13.36,3.35,20.64.02.82-.37,1.63-.8,2.45-1.26.6-.34,1.36-.3,1.93.09,2.76,1.91,6.01,2.92,9.4,2.92,4.87,0,9.64-1.1,14.17-3.27,3.33-1.59,6.58-3.81,9.66-6.58.68-.61,1.71-.62,2.41-.03,2.29,1.94,6.26,4.25,12.21,4.25.02,0,.66-.04.68-.04.8-.08,1.62.53,1.84,1.36.83,3.1,2.29,5.27,3.38,6.54,4.54,5.3,12.56,7.05,20.48,4.02,2.06-.79,4.1-1.86,6.07-3.16,1.91-1.27,3.74-2.79,5.46-4.51,1.75-1.76,3.32-3.72,4.66-5.81,1.38-2.17,2.51-4.49,3.34-6.9.98-2.8,1.47-5.71,1.47-8.64,0-3.07-.62-6.04-1.85-8.83-.94-2.11-2.16-4.14-3.61-6.01-1.06-1.36-2.22-2.68-3.47-3.93-.61-.61-.71-1.57-.24-2.29.76-1.17,1.44-2.41,2-3.69,1.05-2.36,1.57-4.81,1.57-7.27,0-6.03-2.39-9.8-4.4-11.91-4.83-5.06-13.15-6.51-20.37-2.5l-.36.22c-.61.38-1.53.45-2.13.04-.6-.41-1.04-1.04-.92-1.75l1.15-6.44c.26-1.5.38-2.72.38-3.81,0-2.64-.76-5.27-2.2-7.59-1.09-1.75-2.51-3.28-4.24-4.54-1.37-.99-2.89-1.81-4.53-2.42-1.94-.72-4-1.09-6.1-1.09-4.81,0-8.13,1.82-10.08,3.35-1.94,1.53-3.49,3.39-4.75,5.68-1.06,1.95-1.72,4.26-2.15,7.48-.2,1.52-.37,3.22-.51,5.11-.06.86-.71,1.56-1.56,1.68-1.66.24-3.26.61-4.76,1.1-2.92.96-5.66,2.39-8.15,4.26-2.21,1.66-4.3,3.7-6.21,6.04-1.58,1.95-3.16,4.15-4.69,6.56-1.5,2.32-2.92,4.79-4.22,7.36-.4.78-1.3,1.18-2.14.93-.84-.24-1.39-1.06-1.31-1.93.11-1.17.19-2.33.19-3.43,0-3.06-.64-5.79-1.92-8.13-.44-.81-.21-1.83.55-2.37,1.75-1.24,3.22-2.78,4.39-4.59,1.15-1.75,2.04-3.64,2.65-5.63.62-2.03.93-4.16.93-6.36,0-2.61-.49-5.03-1.47-7.19-1.19-2.65-3.09-4.89-5.49-6.48-1.84-1.21-3.94-2.04-6.25-2.47-1.47-.27-3.03-.41-4.75-.41-3.24,0-6.46,1.07-9.32,3.1-1.78,1.27-3.4,2.83-4.82,4.65-.45.58-.87,1.19-1.27,1.81-.3.47-.8.77-1.36.83-.54.05-1.1-.15-1.49-.54-.68-.7-1.39-1.36-2.14-1.95-3.35-2.6-6.61-3.15-8.75-3.15s-4.42.5-6.46,1.49c-1.18.57-2.31,1.27-3.36,2.09-.84.66-1.63,1.38-2.29,2.09-.41.42-.72.77-.96,1.04-1.19,1.36-2.25,2.61-3.3,3.9l-1.81,2.22c-.45.55-1.17.8-1.86.63-.69-.17-1.22-.72-1.36-1.42-.87-4.35-3.73-8.11-8.06-10.57-7.09-4.15-15.88-3.07-21.37,2.69-3.27,3.62-4.87,7.63-4.87,11.85,0,.44.02,1.04.09,1.85.04.47.1.95.16,1.36.02.11.04.35.03.45l-.73,22.45c-.02.65-.39,1.25-.97,1.56-.58.31-1.27.28-1.83-.06-1.2-.75-2.47-1.3-3.76-1.63-.9-.23-1.48-1.08-1.37-2,.15-1.18.21-2.38.21-3.59,0-2.43-.45-4.86-1.32-7.23-.88-2.38-2.17-4.55-3.82-6.46-1.71-1.97-3.78-3.59-6.16-4.82-5.29-2.74-12.01-2.7-17.62-.67-2.34.85-4.53,1.97-6.53,3.35-1.67,1.15-3.27,2.5-4.75,4.01-.58.59-1.47.72-2.18.33-.72-.39-1.09-1.21-.91-2.01.36-1.59.64-2.82.76-3.33.38-1.58.73-3.08,1.04-4.52.33-1.53.6-2.94.83-4.24.31-1.82.45-3.43.45-4.94,0-1.27-.07-2.49-.23-3.59-.32-2.4-1.11-4.58-2.37-6.5-1.56-2.4-3.83-4.3-6.55-5.48-4.83-2.09-11.64-1.83-16.61,2.12-1.64,1.3-3.11,2.89-4.37,4.71-1.01,1.46-1.91,3.03-2.65,4.66-.74,1.61-1.33,3.22-1.69,4.65-.27,1.01-.55,2.16-.83,3.48l-1.56,7.36c-.11.52-.45.97-.92,1.22-.47.25-1.03.29-1.52.1-.87-.33-1.77-.62-2.71-.85-3.59-.84-7.91-.74-11.87.27-1.82.46-3.66,1.1-5.47,1.9-1.66.74-3.29,1.6-4.85,2.57-1.41.87-2.8,1.82-4.19,2.86-3.52,2.68-6.66,5.6-9.31,8.66-.87,1-1.68,2.02-2.46,3.04-.06.08-.4.41-.47.48-.17.15-.33.31-.48.47-.63.68-1.29,1.44-2,2.31-.45.55-.91,1.11-1.3,1.57l-1.52,1.7c-.45.5-1.16.72-1.81.54-.66-.17-1.17-.69-1.33-1.35-.5-2.14-1.18-4.13-2.02-5.92-1.55-3.3-3.75-5.99-6.54-7.99-5.28-3.8-13.26-4.4-19.52-1.98-.67.26-1.44.1-1.96-.41-.9-.9-1.9-1.68-2.97-2.32-3.07-1.83-6.58-2.3-10.26-1.82-1.78.24-3.5.76-5.1,1.57s-3.16,1.95-4.53,3.37c-.57.59-1.08,1.24-1.57,1.94-.4.57-1.08.87-1.78.76-.69-.11-1.26-.6-1.47-1.26l-.33-1.04c-.59-1.74-1.22-3.5-1.89-5.29-.29-.77-.59-1.53-.89-2.29-.1-.25-.14-.51-.13-.78.03-.53.04-1.14.04-1.81v-2.24c0-1.74-.13-3.28-.38-4.71-.5-2.69-1.6-5.08-3.27-7.09-1.92-2.31-4.54-3.95-7.56-4.75-1.65-.44-3.46-.65-5.53-.65-11.84,0-16.94,13.88-19.68,21.34-.01.04-.17.38-.18.42-.21.46-.43.91-.68,1.39l-1.01,1.95c-.29.56-.59,1.12-.94,1.72l-2.51,4.4c-.84,1.25-1.78,2.63-2.91,4.25-1.29,1.87-2.78,4.12-4.44,6.7-.44.67-1.26.98-2.03.77-.77-.21-1.32-.91-1.34-1.71-.03-1.11-.09-2.15-.21-3.09-.34-2.64-1.2-4.99-2.58-7-1.8-2.64-4.36-4.55-7.43-5.55-3.55-1.15-8.21-1.37-12.42.63-1.67.8-3.22,1.89-4.61,3.24-.79.77-1.53,1.64-2.2,2.58-.33.47-.86.75-1.44.77-.44.02-1.12-.23-1.48-.68-1.33-1.64-2.96-2.97-4.85-3.94-4.43-2.27-10.52-2.38-15.41.33-.62.34-1.39.3-1.97-.12-1.03-.75-2.12-1.39-3.25-1.91-3.44-1.57-6.93-2.05-11.79-1.17-.58.1-1.17-.07-1.6-.48-.42-.41-.62-.99-.54-1.57.12-.88.2-1.78.2-2.71,0-1.46-.22-2.94-.68-4.51-.36-1.25-.88-2.5-1.53-3.73-.71-1.33-1.58-2.57-2.58-3.68-1.71-1.9-3.86-3.32-6.23-4.13-1.22-.42-2.49-.75-3.8-.98-1.01-.18-1.98-.31-2.9-.4-.92-.09-1.74-.14-2.48-.16-.66-.02-1.14-.03-1.44-.03-2.32,0-9.77.55-12.09.89-2.05.3-4.15.69-6.23,1.15-1.86.41-3.72.84-5.59,1.29-1.63.39-3.26.75-4.89,1.09l-2.12.37c-1.03.18-2.2.37-3.52.58l-4.26.66c-1.45.22-2.82.42-4.09.6-1.25.17-2.34.32-3.27.44l-.71.09c-2.44.02-4.73.17-6.98.44-2.5.3-4.83.75-6.93,1.34-2.01.56-3.83,1.41-5.4,2.53-1.92,1.38-3.45,3.11-4.54,5.16-.83,1.56-1.39,3.22-1.69,4.95-.19,1.16-.29,2.35-.29,3.53,0,.76.02,1.69.22,2.76.46,3.62,2.21,6.81,4.93,9.08,1.6,1.34,3.44,2.37,5.46,3.07,1.49.52,3.05.87,4.62,1.04,3.03.34,4.88.2,7.27.03.53-.04,1.06.16,1.44.55.37.39.56.92.51,1.45-.23,2.34-.44,4.64-.64,6.91-.21,2.5-.39,4.84-.54,7.03-.16,2.38-.23,4.35-.23,6.01,0,.92.02,1.96.04,3.12.03,1.23.1,2.47.2,3.75.1,1.28.24,2.54.41,3.79.24,1.74.59,3.28,1.05,4.72.53,1.65,1.29,3.23,2.23,4.69.96,1.49,2.1,2.83,3.39,3.98,1.29,1.15,2.69,2.11,4.18,2.85,5.07,2.53,10.92,2.02,15.41-1,1.92-1.31,3.54-2.99,4.8-4.98.44-.7.83-1.44,1.18-2.2.3-.66.92-1.03,1.69-1.06.72.01,1.37.44,1.66,1.11.79,1.85,1.77,3.45,2.91,4.77,4.57,5.29,12.26,6.73,18.51,3.45,1.46-.77,2.82-1.74,4.04-2.88,1.13-1.06,2.12-2.23,2.93-3.48,1.07-1.65,1.81-3.4,2.18-5.2.26-1.15.41-2.32.45-3.5.02-.54.02-1.14.02-1.78,0-1.99-.13-3.94-.38-5.79-.06-.43.04-.87.28-1.23.42-.66.86-1.3,1.33-1.9.59-.78,1.12-1.46,1.52-1.95.36-.44.81-.9,1.29-1.38.54-.53,1.36-.67,2.04-.36.69.32,1.11,1.03,1.07,1.78-.05.7-.08,1.38-.08,2.01,0,2.72.53,5.46,1.58,8.15,1.04,2.66,2.57,5.1,4.55,7.28.98,1.07,2.07,2.05,3.25,2.93.72.54.94,1.52.52,2.32-.42.8-1.35,1.18-2.21.88-1.68-.58-3.38-.86-5.04-.86Zm134.92,2.17l.34.3v-.14s-.34-.16-.34-.16Zm-141.3-19.65c.21,1.8.32,3.68.32,5.59,0,.68-.02,1.31-.03,1.89-.04,1.42-.22,2.81-.53,4.16-.28,1.37-.73,2.72-1.35,4.03,2.48-1.23,5.17-1.86,7.94-1.86h.05c-1.92-2.29-3.43-4.82-4.5-7.55-.86-2.17-1.41-4.38-1.67-6.61-.08.11-.16.23-.24.34Z"></path>
    <path class="cls-16" d="m342.41,90.78c0,.77-.13,1.49-.39,2.17-.26.68-.62,1.27-1.08,1.78-.46.51-1.01.91-1.66,1.22-.65.31-1.35.46-2.1.46-.69,0-1.37-.25-2.03-.74-.66-.49-1.31-1.12-1.93-1.89-.62-.77-1.22-1.64-1.79-2.61-.57-.97-1.08-1.94-1.54-2.93-.46-.98-.86-1.92-1.22-2.81s-.65-1.63-.87-2.21c-.31-.83-.61-1.6-.91-2.31-.31-.71-.62-1.61-.96-2.72-.19-.62-.34-1.08-.44-1.38-.1-.31-.18-.55-.25-.72-.07-.17-.13-.31-.17-.41s-.09-.27-.14-.49c-.55.28-1.15.44-1.79.49-.64.05-1.34.07-2.12.07-.14,0-.38.05-.71.16-.33.11-.71.24-1.14.39-.43.15-.87.32-1.33.48-.46.17-.89.32-1.31.44-1.33.37-2.77.72-4.32,1.06-1.55.34-3.17.67-4.86.99-1.69.32-3.41.65-5.17.97-1.76.32-3.52.65-5.29.99-.19.03-.36.09-.5.18-.14.09-.33.33-.58.72s-.62.98-1.12,1.78c-.5.8-1.2,1.94-2.12,3.41-1.05,1.69-2.05,3.16-2.99,4.41-.94,1.25-1.83,2.31-2.66,3.21-.8.89-1.65,1.57-2.55,2.03-.9.46-1.83.69-2.8.69-1.27,0-2.41-.18-3.4-.53-1-.35-1.84-.81-2.51-1.36-.68-.55-1.19-1.15-1.54-1.8s-.52-1.25-.52-1.8c0-1.05.4-1.78,1.2-2.19.8-.42,1.91-.76,3.32-1.04,0-.03.15-.26.46-.69.3-.43.66-.92,1.08-1.48s.82-1.1,1.23-1.64c.4-.54.68-.95.85-1.22,1.08-1.66,2.21-3.39,3.38-5.19,1.18-1.8,2.47-3.87,3.88-6.21v.05c.72-1.17,1.31-2.14,1.77-2.91.46-.77.89-1.49,1.31-2.17.41-.68.85-1.37,1.31-2.08.46-.71,1.02-1.58,1.68-2.63,1.72-2.68,3.22-4.94,4.5-6.8,1.29-1.86,2.35-3.41,3.18-4.64,1-1.72,1.94-3.37,2.82-4.94.39-.68.76-1.36,1.12-2.05.36-.69.71-1.36,1.04-2.01s.63-1.25.89-1.82c.26-.57.46-1.05.6-1.45,3.3-8.95,6.12-13.43,8.47-13.43,1.02,0,1.85.08,2.49.25.64.17,1.13.46,1.47.88.34.42.58.96.71,1.64.12.68.19,1.52.19,2.54v2.24c0,.54-.01,1.01-.04,1.41-.03.4-.05.8-.06,1.2-.01.4-.05.94-.1,1.61.66,1.57,1.31,3.18,1.93,4.84.62,1.66,1.21,3.31,1.76,4.94.11.37.35,1.15.73,2.33.37,1.18.82,2.58,1.33,4.18.51,1.6,1.05,3.29,1.62,5.07.57,1.78,1.09,3.46,1.58,5.03.48,1.57.91,2.92,1.27,4.06.36,1.14.6,1.86.71,2.17.36,1.72,1.37,4.57,3.03,8.54.22.49.41.92.56,1.29.15.37.33.75.54,1.15.21.4.48.86.81,1.38.33.52.78,1.2,1.33,2.03,1.91,2.89,2.86,5.01,2.86,6.37Zm-27.74-23.25c1.22-.34,2.46-.69,3.72-1.06s2.43-.74,3.51-1.11c-.44-1.51-.9-3.08-1.37-4.71-.47-1.63-.96-3.25-1.47-4.87-.51-1.61-1.03-3.18-1.56-4.71-.53-1.52-1.08-2.91-1.66-4.18-2.35,3.57-4.71,7.32-7.08,11.26-2.37,3.94-4.62,7.95-6.75,12.04.83-.09,1.7-.16,2.62-.21.91-.05,1.65-.16,2.2-.35.75-.25,1.42-.46,2.01-.65.6-.18,1.19-.35,1.79-.51.6-.15,1.21-.31,1.85-.46.64-.15,1.37-.32,2.2-.51Z"></path>
    <path class="cls-12" d="m416.59,62.04c0,.58-.1,1.22-.29,1.91-.19.69-.44,1.38-.73,2.05s-.61,1.31-.95,1.91c-.35.6-.67,1.1-.98,1.5-.88,1.23-1.87,2.54-2.97,3.92-1.09,1.38-2.24,2.75-3.43,4.11s-2.41,2.65-3.65,3.9c-1.25,1.25-2.49,2.33-3.74,3.25-.97.74-1.9,1.42-2.8,2.05-.9.63-1.83,1.19-2.78,1.68-.96.49-1.97.88-3.03,1.15-1.07.28-2.24.41-3.51.41-2.08,0-3.8-.46-5.17-1.38-1.37-.92-2.49-2.15-3.34-3.69-.86-1.54-1.52-3.3-1.97-5.28-.46-1.98-.81-4.05-1.06-6.21-.36-2.92-.76-5.24-1.2-6.94-.44-1.71-.98-2.56-1.62-2.56-.55,0-1.09.15-1.62.44-.53.29-1.18.92-1.97,1.87-.79.95-1.79,2.35-2.99,4.18-1.2,1.83-2.78,4.27-4.71,7.31-.66,1.05-1.47,2.21-2.43,3.51-.96,1.29-1.96,2.53-3.01,3.71-1.05,1.18-2.1,2.23-3.13,3.14-1.04.91-2,1.53-2.89,1.87-3.49-.86-5.23-4.57-5.23-11.12,0-1.66.17-4.11.5-7.34.17-1.45.35-2.97.56-4.57.21-1.6.47-3.21.79-4.82.32-1.61.7-3.2,1.14-4.75.44-1.55.95-2.99,1.54-4.31.33-.74.71-1.32,1.12-1.75.41-.43.84-.75,1.27-.97.43-.21.88-.35,1.35-.42.47-.06.94-.09,1.41-.09.41,0,.82.12,1.2.35s.73.56,1.04.99c.3.43.55.95.73,1.57.18.62.27,1.32.27,2.12,0,.71-.06,1.38-.17,2.03-.11.65-.26,1.32-.46,2.01-.19.69-.39,1.42-.6,2.19-.21.77-.42,1.65-.64,2.63-.14.65-.34,1.48-.6,2.49-.26,1.01-.53,2.07-.79,3.16-.26,1.09-.51,2.16-.73,3.21-.22,1.05-.36,1.92-.42,2.63.5-.65,1.07-1.45,1.72-2.42.65-.97,1.33-2.01,2.05-3.14.72-1.12,1.45-2.27,2.2-3.44.75-1.17,1.5-2.28,2.24-3.32.97-1.35,1.92-2.63,2.86-3.83.94-1.2,1.93-2.24,2.97-3.11s2.17-1.57,3.38-2.08c1.22-.51,2.59-.76,4.11-.76,1.8,0,3.27.41,4.4,1.22s2.04,1.95,2.72,3.39c.68,1.45,1.18,3.16,1.52,5.14.33,1.98.6,4.15.79,6.48.11,1.2.26,2.43.44,3.69.18,1.26.45,2.41.81,3.44.36,1.03.83,1.88,1.41,2.54.58.66,1.3.99,2.16.99,1.27,0,2.66-.38,4.17-1.13,1.51-.75,3.09-1.79,4.76-3.11,1.66-1.32,3.36-2.86,5.11-4.61s3.49-3.63,5.23-5.63c.55-.65,1.09-1.28,1.6-1.91.51-.63,1-1.2,1.47-1.71s.93-.91,1.37-1.22.89-.46,1.33-.46c.17,0,.36.02.58.07.22.05.43.14.62.28.19.14.35.33.48.58.12.25.19.58.19,1.01Z"></path>
    <path class="cls-3" d="m446.66,53.41c0,.52-.15,1.25-.46,2.17-.31.92-.67,2.04-1.1,3.34-.43,1.31-.86,2.81-1.31,4.5-.44,1.69-.8,3.55-1.08,5.58-.08.62-.2,1.55-.35,2.81-.15,1.26-.32,2.69-.5,4.29-.18,1.6-.37,3.27-.56,5.01-.19,1.74-.37,3.38-.54,4.91-.17,1.54-.32,2.89-.46,4.06-.14,1.17-.24,1.98-.29,2.45-.11.95-.34,2.11-.68,3.48-.35,1.37-.75,2.79-1.22,4.27-.47,1.48-.98,2.91-1.54,4.31-.55,1.4-1.09,2.61-1.62,3.62-.89,1.41-1.92,2.68-3.11,3.81-1.19,1.12-2.44,2.08-3.74,2.86-1.3.78-2.63,1.38-3.99,1.8-1.36.42-2.64.62-3.86.62s-2.32-.09-3.47-.28c-1.15-.18-2.31-.49-3.49-.92-1.18-.43-2.39-1.01-3.63-1.73s-2.53-1.62-3.86-2.7c-.83-.68-1.68-1.45-2.53-2.33-.86-.88-1.63-1.76-2.3-2.65-.68-.89-1.23-1.75-1.66-2.58-.43-.83-.64-1.55-.64-2.17,0-.98.26-1.78.77-2.4s1.25-.92,2.22-.92c.58,0,1.29.28,2.14.85.84.57,1.77,1.25,2.78,2.05,1.01.8,2.08,1.63,3.22,2.49,1.13.86,2.28,1.58,3.45,2.17.86.43,1.59.76,2.2.99.61.23,1.2.4,1.79.51.58.11,1.2.17,1.85.18.65.02,1.45.02,2.39.02.39,0,.87-.13,1.45-.39.58-.26,1.2-.64,1.85-1.13.65-.49,1.28-1.11,1.89-1.85.61-.74,1.12-1.58,1.54-2.54.75-1.63,1.37-3.47,1.87-5.51.5-2.05.92-4.14,1.27-6.27.35-2.14.62-4.24.83-6.32.21-2.08.39-3.96.56-5.65-1.27,1.45-2.66,2.78-4.15,3.99-1.49,1.22-3.02,2.27-4.57,3.16-1.55.89-3.1,1.58-4.65,2.08-1.55.49-3.05.74-4.49.74-1.25,0-2.39-.2-3.43-.6s-1.93-1.01-2.68-1.82c-.75-.81-1.33-1.84-1.76-3.07-.43-1.23-.64-2.68-.64-4.34,0-1.94.34-4.07,1.02-6.39.68-2.32,1.71-4.71,3.09-7.15,1.38-2.45,3.14-4.89,5.25-7.34,2.12-2.45,4.63-4.78,7.54-6.99,1.02-.77,2.1-1.5,3.22-2.19,1.12-.69,2.27-1.3,3.45-1.82,1.18-.52,2.37-.94,3.57-1.25,1.2-.31,2.4-.46,3.59-.46,1.02,0,1.9.08,2.62.25.72.17,1.35.39,1.89.67.54.28,1.01.59,1.41.95.4.35.78.72,1.14,1.08.3.31.61.71.91,1.22.3.51.57,1.04.81,1.59.24.55.43,1.09.58,1.62s.23.94.23,1.25Zm-9.59,2.81c0-.28-.02-.6-.06-.97s-.11-.73-.21-1.08c-.1-.35-.24-.65-.42-.88s-.41-.35-.68-.35c-.44,0-.98.1-1.62.3-.64.2-1.33.48-2.08.85-.75.37-1.52.84-2.31,1.41-.79.57-1.56,1.22-2.3,1.96-1.94,1.94-3.64,3.87-5.11,5.81-1.47,1.94-2.7,3.8-3.7,5.58-1,1.78-1.75,3.43-2.26,4.94-.51,1.51-.77,2.77-.77,3.78,0,.71.13,1.23.39,1.57.26.34.55.51.85.51.64,0,1.45-.2,2.45-.6,1-.4,2.01-.89,3.05-1.48,1.04-.58,2.01-1.2,2.93-1.84.91-.65,1.62-1.22,2.12-1.71,1.3-1.26,2.54-2.7,3.72-4.31,1.18-1.61,2.21-3.25,3.09-4.91.89-1.66,1.59-3.24,2.12-4.75.53-1.51.79-2.78.79-3.83Z"></path>
    <path class="cls-22" d="m477.98,84.91c.64-1.91-1.45-3.55-3.24-2.64-.01,0-.02.01-.03.02-1.22.62-2.36,1.05-3.43,1.29-1.07.25-2.14.37-3.22.37-.47,0-.95-.13-1.43-.39-.48-.26-.92-.75-1.31-1.48-.39-.72-.71-1.74-.96-3.04-.25-1.31-.37-3.01-.37-5.1,0-1.63.07-3.48.21-5.56.14-2.08.31-4.13.52-6.16.21-2.03.44-3.93.68-5.7.25-1.77.47-3.16.66-4.18.03-.15.09-.45.19-.9.1-.44.21-.98.35-1.59.14-.61.28-1.27.44-1.96.15-.69.3-1.35.44-1.98.14-.63.26-1.18.35-1.66.1-.48.17-.81.23-.99.36-1.51,2.1-9.27,2.47-10.76.36-1.49.68-2.91.98-4.24.29-1.34.53-2.58.73-3.71.19-1.14.29-2.12.29-2.95,0-.74-.04-1.41-.13-2.03-.08-.61-.27-1.15-.56-1.59-.29-.45-.72-.79-1.29-1.04-.57-.25-1.32-.37-2.26-.37-.75,0-1.49.29-2.22.88-.73.58-1.41,1.32-2.01,2.19-.61.88-1.14,1.81-1.6,2.81-.46,1-.8,1.93-1.02,2.79-.22.83-.45,1.79-.69,2.88-.23,1.09-.48,2.24-.73,3.44-.25,1.2-1.87,8.67-2.09,9.89-.22,1.22-.42,2.38-.58,3.48-.19,1.29-.41,2.76-.66,4.41-.25,1.65-.5,3.37-.75,5.17-.25,1.8-.48,3.65-.71,5.56-.22,1.91-.41,3.77-.58,5.58-.17,1.81-.31,3.55-.41,5.21-.11,1.66-.17,3.15-.17,4.48,0,3.51.34,6.44,1.04,8.79.69,2.35,1.58,4.24,2.68,5.65,1.09,1.42,2.3,2.42,3.61,3,1.32.58,2.59.88,3.84.88s2.65-.21,4.05-.62c1.3-.39,2.67-.95,4.1-1.7.2-.11.4-.24.56-.4,1.88-1.76,3.3-3.81,4.03-6.01Z"></path>
    <path class="cls-15" d="m524.22,72.19c0,1.14-.4,2.43-1.2,3.87-.8,1.45-1.88,2.95-3.24,4.52-1.49,1.69-3.13,3.27-4.92,4.73-1.79,1.46-3.64,2.72-5.56,3.78-1.92,1.06-3.88,1.89-5.88,2.49-1.99.6-3.93.9-5.81.9-2.32,0-4.39-.41-6.21-1.22-1.81-.81-3.35-2.01-4.61-3.6-1.26-1.58-2.22-3.56-2.89-5.93-.66-2.37-1-5.09-1-8.17,0-1.84.16-3.72.48-5.63.32-1.91.78-3.81,1.39-5.7.61-1.89,1.37-3.72,2.28-5.49.91-1.77,1.95-3.44,3.11-5.01.75-.98,1.6-1.98,2.55-2.98.95-1,2.01-1.9,3.18-2.7,1.16-.8,2.44-1.45,3.84-1.96,1.4-.51,2.91-.76,4.55-.76,1.33,0,2.51.27,3.55.81,1.04.54,1.92,1.22,2.64,2.05.72.83,1.27,1.77,1.66,2.81.39,1.05.58,2.08.58,3.09,0,2.4-.46,4.64-1.39,6.71-.93,2.08-2.22,4.06-3.88,5.95-1.66,1.89-3.66,3.75-6,5.56-2.34,1.82-4.92,3.68-7.74,5.58-.14.06-.35.2-.64.41-.29.22-.44.35-.44.42.03.62.17,1.28.41,1.98.25.71.64,1.37,1.16,1.98.53.62,1.2,1.13,2.01,1.55.81.41,1.79.62,2.93.62,1.74,0,3.5-.27,5.27-.81,1.77-.54,3.51-1.32,5.23-2.33,1.72-1.01,3.39-2.24,5.02-3.69,1.63-1.44,3.18-3.07,4.65-4.89.55-.71,1.1-1.22,1.64-1.52.54-.31,1.04-.46,1.52-.46s.88.22,1.22.65c.35.43.52,1.22.52,2.35Zm-20.14-17.67c0-.49-.08-.9-.25-1.22-.17-.32-.35-.58-.56-.76-.21-.18-.42-.32-.62-.39s-.35-.12-.44-.12c-1.25,0-2.39.53-3.45,1.59-1.05,1.06-1.99,2.42-2.82,4.08-.83,1.66-1.56,3.49-2.18,5.49-.62,2-1.14,3.94-1.56,5.81,1.66-1.41,3.21-2.72,4.65-3.92,1.44-1.2,2.69-2.37,3.76-3.51,1.07-1.14,1.91-2.28,2.53-3.41.62-1.14.93-2.35.93-3.64Z"></path>
    <path class="cls-1" d="m600.05,81.74c0,.86-.17,1.68-.5,2.47-.33.78-.8,1.46-1.41,2.03-.61.57-1.34,1.02-2.2,1.36-.86.34-1.81.51-2.86.51-1.69,0-4.24-.65-7.64-1.94-2.85-1.11-5.78-2.36-8.78-3.76-3-1.4-6.08-2.98-9.24-4.73-1.5-.83-3.34-1.62-5.54-2.35-2.2-.74-4.6-1.29-7.2-1.66-.11.25-.21.69-.31,1.32-.1.63-.18,1.33-.25,2.1-.07.77-.12,1.55-.15,2.35-.03.8-.04,1.51-.04,2.12,0,1.35.1,2.5.29,3.44.19.94.48,1.88.87,2.84.53,1.14.91,2.13,1.16,2.98.25.85.37,1.52.37,2.01,0,1.2-.55,2.23-1.66,3.09-1.11.86-2.73,1.6-4.86,2.21-1.41-.92-2.55-1.94-3.4-3.04-.86-1.11-1.52-2.32-1.99-3.65-.47-1.32-.78-2.74-.93-4.27-.15-1.52-.23-3.13-.23-4.82,0-1.01.02-2.42.06-4.22.04-1.8.1-3.84.17-6.14.07-2.29.14-4.74.23-7.36.08-2.61.17-5.23.25-7.84.08-2.61.17-5.15.25-7.61.08-2.46.16-4.69.23-6.69.07-2,.13-3.67.17-5.01.04-1.34.06-2.21.06-2.61,0-.15-.01-.36-.04-.62-.03-.26-.06-.55-.1-.85-.04-.31-.08-.62-.11-.92-.03-.31-.04-.55-.04-.74,0-1.26.53-2.48,1.58-3.64,1-1.05,2.17-1.57,3.53-1.57,1.11,0,2.2.32,3.28.97,1.6.89,2.41,1.95,2.41,3.18,0,.43-.05.95-.15,1.57-.1.62-.17,1.15-.23,1.61-.14,1.11-.25,2.24-.33,3.39-.08,1.15-.15,2.36-.21,3.62-.14,3.14-.26,6.48-.35,10.03-.1,3.55-.2,7.36-.31,11.42.19-.12.45-.28.77-.46.32-.18.66-.39,1.02-.62.36-.23.72-.47,1.08-.71.36-.25.68-.48.95-.69,2.24-1.51,4.48-3.31,6.71-5.42,2.23-2.11,4.42-4.59,6.58-7.45,1.44-1.91,2.75-3.62,3.95-5.14,1.19-1.52,2.31-2.94,3.36-4.24,1.05-1.31,2.05-2.54,3.01-3.71.96-1.17,1.93-2.32,2.93-3.46.19-.21.44-.48.75-.81.3-.32.64-.63,1.02-.92.37-.29.77-.54,1.18-.74.42-.2.85-.3,1.29-.3.41,0,.9.22,1.45.65.55.43,1.07.94,1.56,1.52.48.58.9,1.19,1.25,1.82.35.63.52,1.16.52,1.59,0,.52-.22,1.28-.66,2.26l-.71,1.62c-.08.15-.16.35-.23.6-.07.25-.13.45-.19.6-.08.28-.17.52-.25.74-.08.22-.21.43-.37.65-.17.22-.38.43-.64.65-.26.22-.62.45-1.06.69-.28.15-.57.29-.89.41-.32.12-.62.25-.91.39-.29.14-.54.28-.75.42-.21.14-.34.29-.39.44-.94,1.63-1.73,2.9-2.37,3.81-.64.91-1.19,1.7-1.66,2.38-.78,1.08-1.68,2.21-2.7,3.39-1.02,1.18-2.06,2.31-3.11,3.39-1.05,1.08-2.14,2.15-3.26,3.21-1.12,1.06-2.21,2.02-3.26,2.88-.44.37-.89.72-1.35,1.04-.46.32-.94.67-1.45,1.04-.51.37-1.06.76-1.64,1.18-.58.42-1.2.88-1.87,1.41,3.26,1.26,6.64,2.73,10.13,4.41,3.49,1.68,7.11,3.28,10.88,4.82,1.22.49,2.16.88,2.82,1.15s1.22.48,1.66.62c.44.14.84.22,1.18.25.34.03.81.05,1.39.05.28,0,.68-.03,1.2-.09.53-.06,1.11-.14,1.74-.23.64-.09,1.31-.2,2.01-.32.71-.12,1.38-.23,2.01-.32.47.86.84,1.72,1.1,2.56.26.85.39,1.67.39,2.47Z"></path>
    <path class="cls-9" d="m630.37,86.3c-.15-2.68-3.12-4.14-5.41-2.74-.01,0-.03.02-.04.02-1.25.74-2.31,1.19-3.2,1.36-.89.17-1.74.25-2.57.25-.66,0-1.24-.35-1.72-1.06-.48-.71-.89-1.64-1.2-2.79-.32-1.15-.56-2.47-.73-3.94-.17-1.48-.25-3-.25-4.57,0-1.38.07-2.98.21-4.78.14-1.8.39-3.82.75-6.07.22-1.23.42-2.48.6-3.76.18-1.28.27-2.48.27-3.62,0-2.4-.9-3.6-2.7-3.6s-3.38.65-4.82,1.94c-1.5,1.35-2.45,2.78-2.86,4.29-.19.77-.38,1.82-.56,3.16-.18,1.34-.35,2.72-.5,4.15-.15,1.43-.27,2.79-.35,4.08-.08,1.29-.13,2.26-.13,2.91,0,1.66.07,3.41.21,5.26.14,1.84.39,3.67.77,5.47.37,1.8.88,3.51,1.52,5.12s1.46,3.04,2.47,4.29c1.01,1.25,2.23,2.23,3.65,2.95,1.43.72,3.11,1.08,5.05,1.08,1.66,0,3.42-.42,5.27-1.27,1.78-.81,3.59-1.95,5.42-3.4.33-.49.64-1,.92-1.55,0-1.03,0-2.13-.06-3.2Z"></path>
    <path class="cls-9" d="m612.68,34.54c.64.28,1.36.49,2.16.65s1.59.23,2.37.23c2.19,0,3.81-.81,4.86-2.45.53-.8.93-1.65,1.2-2.56.28-.91.41-1.87.41-2.88,0-.92-.14-1.69-.41-2.31-.28-.61-.67-1.09-1.18-1.43-.51-.34-1.14-.58-1.89-.71-.75-.14-1.6-.21-2.57-.21-.78,0-1.59.3-2.43.9-.85.6-1.62,1.35-2.33,2.26-.71.91-1.28,1.89-1.72,2.95-.44,1.06-.66,2.07-.66,3.02,0,.55.21,1.05.62,1.48.41.43.94.78,1.58,1.06Z"></path>
    <path class="cls-17" d="m691.66,74.86h0c-1.53,0-3,.53-4.23,1.45-.1.07-.19.14-.29.22-.36.28-.77.56-1.22.85-.46.29-.93.57-1.41.83-.49.26-.95.48-1.39.65-.44.17-.86.25-1.25.25-.31,0-.58-.09-.83-.28-.25-.18-.46-.41-.64-.67-.18-.26-.33-.54-.44-.83-.11-.29-.18-.55-.21-.76-.11-.95-.19-1.95-.25-3-.06-1.05-.1-2.1-.13-3.16-.03-1.06-.05-2.11-.06-3.16-.01-.85-.02-1.66-.02-2.43,0-2.32.1-4.62.36-6.93.22-2,.49-4.16.81-6.47.03-.09.08-.35.14-.78.07-.43.15-.95.25-1.55.1-.6.19-1.24.29-1.91.1-.68.19-1.33.29-1.96.1-.63.18-1.19.25-1.68.07-.49.1-.83.1-1.01.41-2.58.79-4.82,1.12-6.71.33-1.89.62-3.49.85-4.8.24-1.31.42-2.36.56-3.16.14-.8.21-1.4.21-1.8,0-.43-.14-.87-.41-1.31s-.66-.85-1.14-1.2c-.48-.35-1.04-.65-1.66-.88-.62-.23-1.28-.35-1.97-.35-1.14,0-2.04.26-2.7.78-.66.52-1.22,1.18-1.66,1.98-.33.62-.61,1.75-.83,3.41-.22,1.66-.4,3.69-.54,6.09-.11,1.72-.24,3.46-.37,5.21-.14,1.75-.29,3.45-.46,5.07-.17,1.63-.34,3.18-.52,4.66-.18,1.48-.37,2.8-.56,3.97-.47-2.58-1.27-4.6-2.41-6.04-1.13-1.45-2.59-2.17-4.36-2.17-2.1,0-4,.28-5.69.83-1.69.55-3.26,1.38-4.71,2.47-1.45,1.09-2.83,2.44-4.13,4.04-1.3,1.6-2.62,3.45-3.95,5.54-2.13,3.29-3.92,6.64-5.38,10.03-1.45,3.4-2.78,6.99-3.97,10.77-.22.71-.39,1.58-.5,2.61-.11,1.03-.17,2.27-.17,3.71,0,1.08.13,2.19.39,3.34.26,1.15.66,2.21,1.18,3.18.53.97,1.19,1.76,1.99,2.38.8.62,1.74.92,2.82.92,3.1,0,6.11-.7,9.03-2.1,2.92-1.4,5.76-3.5,8.53-6.3,1.05-1.08,2.08-2.28,3.09-3.6,1.01-1.32,1.98-2.69,2.91-4.11.93-1.41,1.81-2.84,2.66-4.27.84-1.43,1.64-2.78,2.39-4.04.3,2.58.64,5.02,1,7.31.36,2.29.88,4.28,1.56,5.97.68,1.69,1.58,3.03,2.72,4.01,1.13.98,2.66,1.48,4.57,1.48.83,0,1.77-.24,2.82-.72.07-.03.15-.08.22-.11,4.7-3.4,10.17-12.83,7.34-13.8Zm-25.43-8.05c-.26.48-.53.95-.79,1.41-.26.46-.53.89-.79,1.29-.26.4-.51.74-.73,1.01-.58.74-1.36,1.71-2.32,2.93-.97,1.22-2.23,2.7-3.78,4.45-.72.83-1.59,1.68-2.59,2.56-1.01.88-2.14,1.79-3.38,2.74-1.19.89-2.23,1.55-3.11,1.98-.89.43-1.6.65-2.16.65-.61,0-.91-.92-.91-2.77,0-2.03.73-4.8,2.2-8.3.47-1.08,1.02-2.28,1.66-3.62.64-1.34,1.4-2.78,2.28-4.31.8-1.35,1.68-2.81,2.64-4.38.96-1.57,1.92-3.01,2.89-4.34.97-1.32,1.9-2.42,2.78-3.3s1.66-1.32,2.32-1.32c.31,0,.65.12,1.02.37.37.25.72.55,1.04.92.32.37.59.78.81,1.22.22.45.33.87.33,1.27,0,.18-.02.46-.06.83s-.09.76-.15,1.18c-.06.41-.1.82-.14,1.22-.04.4-.06.75-.06,1.06,0,.74.13,1.47.39,2.19.26.72.68,1.3,1.27,1.73-.17.4-.38.84-.64,1.31Z"></path>
    <path class="cls-13" d="m716.77,84.23c0,1.6-.27,3.18-.81,4.73-.54,1.55-1.25,3.02-2.14,4.41-.89,1.38-1.91,2.66-3.07,3.83-1.16,1.17-2.37,2.17-3.61,3-1.25.83-2.49,1.48-3.74,1.96-1.25.48-2.41.71-3.49.71-1.69,0-2.92-.45-3.7-1.36-.78-.91-1.16-2.13-1.16-3.67,0-.74.1-1.44.31-2.1s.5-1.25.89-1.75c.39-.51.86-.91,1.43-1.2.57-.29,1.21-.44,1.93-.44h.75c.55,0,1.18-.09,1.87-.28.69-.18,1.49-.69,2.41-1.52.8-.74,1.39-1.62,1.77-2.65.37-1.03.56-1.93.56-2.7,0-.68-.15-1.31-.46-1.91-.31-.6-.71-1.19-1.2-1.78-.5-.58-1.07-1.16-1.72-1.73-.65-.57-1.34-1.15-2.05-1.73-.94-.8-1.89-1.64-2.84-2.51-.96-.88-1.82-1.81-2.59-2.81-.78-1-1.4-2.06-1.87-3.18-.47-1.12-.71-2.33-.71-3.62s.21-2.64.62-4.06c.42-1.41.98-2.81,1.68-4.2.71-1.38,1.52-2.69,2.43-3.92.91-1.23,1.86-2.32,2.84-3.28.98-.95,1.97-1.71,2.97-2.26,1-.55,1.92-.83,2.78-.83,1.41,0,2.48.38,3.22,1.15.73.77,1.1,2,1.1,3.69,0,.8-.19,1.62-.56,2.47-.37.85-.85,1.68-1.41,2.49-.57.82-1.2,1.61-1.91,2.38-.71.77-1.39,1.48-2.05,2.12-.58.58-1.13,1.06-1.64,1.43-.51.37-.99.77-1.43,1.2.28.55.64,1.12,1.08,1.68.44.57.93,1.12,1.45,1.66.53.54,1.06,1.05,1.6,1.55.54.49,1.05.95,1.52,1.38,1.02.92,2.06,1.89,3.11,2.91,1.05,1.01,2.01,2.08,2.89,3.21.87,1.12,1.59,2.31,2.14,3.55.55,1.25.83,2.58.83,3.99Z"></path>
    <g>
      <path class="cls-19" d="m194.37,38.74c.44,0,.91-.05,1.39-.16.48-.11.93-.32,1.35-.65.42-.32.75-.77,1.02-1.34.26-.57.39-1.33.39-2.28,0-.31-.07-.7-.21-1.18-.14-.48-.34-.96-.6-1.45-.26-.49-.57-.94-.93-1.34-.36-.4-.77-.68-1.25-.83-.61-.21-1.27-.38-1.97-.51-.71-.12-1.38-.21-2.01-.28-.64-.06-1.2-.1-1.7-.12-.5-.02-.86-.02-1.08-.02-1.74,0-8.58.5-10.36.76-1.79.26-3.58.59-5.38.99s-3.6.81-5.4,1.25c-1.8.43-3.6.83-5.4,1.2-.5.09-1.29.23-2.37.42-1.08.18-2.31.39-3.67.6-1.37.22-2.81.44-4.32.67-1.51.23-2.92.44-4.24.62-1.32.18-2.46.34-3.45.46s-1.65.18-2.01.18c-1.91,0-3.82.12-5.73.35-1.91.23-3.64.56-5.19.99-.66.18-1.21.43-1.64.74s-.75.67-.98,1.08c-.22.42-.37.87-.46,1.36-.08.49-.13,1-.13,1.52,0,.31,0,.5.02.58.01.08.05.24.1.48,0,.68.25,1.22.75,1.64.5.42,1.08.74,1.74.97.66.23,1.34.38,2.03.46.69.08,1.23.12,1.62.12,1.88,0,3.87-.12,5.98-.37,2.1-.25,4.15-.51,6.15-.78,1.58-.21,3.04-.41,4.4-.58,1.36-.17,2.48-.25,3.36-.25-.06.68-.17,1.83-.35,3.46-.18,1.63-.39,3.55-.62,5.74-.24,2.2-.48,4.55-.73,7.06-.25,2.51-.48,4.97-.68,7.38-.21,2.42-.38,4.68-.52,6.78-.14,2.11-.21,3.85-.21,5.24,0,.83.01,1.76.04,2.79.03,1.03.08,2.08.17,3.14.08,1.06.19,2.1.33,3.11.14,1.01.33,1.91.58,2.68.22.68.53,1.32.91,1.91.39.6.83,1.12,1.33,1.57.5.45,1.01.8,1.54,1.06.53.26,1.02.39,1.5.39.72,0,1.36-.19,1.93-.58.57-.39,1.05-.88,1.43-1.5.39-.61.68-1.31.89-2.08.21-.77.31-1.52.31-2.26,0-.06-.04-.48-.13-1.25-.08-.77-.18-1.66-.29-2.68-.11-1.01-.21-2.04-.29-3.07-.08-1.03-.13-1.82-.13-2.38,0-4.06.19-8.17.56-12.34.37-4.17.77-8.4,1.18-12.71l1.08-11.07c0-.43.08-.93.23-1.5.15-.57.33-.91.52-1.04.28-.18.73-.39,1.35-.62.62-.23,1.35-.45,2.18-.67.83-.22,1.73-.43,2.7-.65.97-.22,1.94-.4,2.91-.55.97-.15,1.9-.28,2.8-.37.9-.09,1.69-.14,2.39-.14,1.08,0,2.03,0,2.84.02.82.02,6.67-.33,7.42-.3.75.03,1.52.05,2.31.07.79.02,1.68.02,2.68.02Z"></path>
      <path class="cls-5" d="m217.68,61.99c.61,0,1.22-.08,1.83-.25.61-.17,1.16-.46,1.64-.88.48-.42.89-.98,1.2-1.68.32-.71.49-1.58.52-2.63v-.09c0-.71-.14-1.41-.44-2.1-.29-.69-.71-1.32-1.25-1.89-.54-.57-1.2-1.03-1.97-1.38-.78-.35-1.65-.53-2.62-.53-1.97,0-3.93.5-5.9,1.5-1.97,1-3.89,2.29-5.77,3.87-1.88,1.58-3.7,3.35-5.44,5.31-1.74,1.95-3.38,3.88-4.9,5.79.14-1.66.33-3.39.58-5.19.25-1.8.54-3.38.87-4.73.28-1.01.5-1.95.66-2.79.17-.85.25-1.39.25-1.64,0-.4-.06-.85-.17-1.36-.11-.51-.33-.98-.64-1.43-.32-.45-.75-.82-1.29-1.13s-1.25-.46-2.14-.46c-.75,0-1.45.19-2.12.58-.66.39-1.27.85-1.81,1.38-.54.54-.98,1.1-1.33,1.68s-.57,1.09-.68,1.52c-.11.49-.22,1.11-.33,1.84-.11.74-.2,1.46-.27,2.17-.07.71-.13,1.33-.17,1.87-.04.54-.08.85-.1.95-.03.25-.07.76-.13,1.55-.06.78-.12,1.68-.19,2.7-.07,1.01-.14,2.08-.21,3.21-.07,1.12-.14,2.17-.21,3.14-.07.97-.12,1.79-.17,2.47-.04.68-.06,1.08-.06,1.2,0,.22-.01.71-.04,1.48-.03.77-.05,1.57-.06,2.4-.01.83-.03,1.6-.04,2.31-.01.71-.02,1.12-.02,1.25,0,2.06.08,3.98.25,5.77.17,1.78.44,3.34.81,4.66.37,1.32.88,2.35,1.52,3.09.64.74,1.41,1.11,2.32,1.11.55,0,1.09-.14,1.62-.42.53-.28,1.01-.62,1.45-1.04s.81-.85,1.1-1.29c.29-.44.46-.85.52-1.22.11-.43.17-.87.19-1.32.01-.44.02-.93.02-1.45,0-1.48-.09-2.88-.27-4.2s-.27-2.48-.27-3.46c0-.8.21-1.69.64-2.68.43-.98.96-1.97,1.58-2.95.62-.98,1.28-1.93,1.97-2.84.69-.91,1.3-1.68,1.83-2.33.94-1.14,2.06-2.29,3.36-3.46,1.3-1.17,2.63-2.23,3.98-3.18,1.36-.95,2.68-1.73,3.97-2.33,1.29-.6,2.37-.9,3.26-.9.53,0,1.04.08,1.53.23.5.15,1,.23,1.5.23Z"></path>
      <path class="cls-4" d="m269.97,53.39c-.1-.75-.3-1.35-.6-1.8-.3-.44-.74-.76-1.31-.95-.57-.18-1.32-.28-2.26-.28-.41,0-.86.12-1.35.35-.48.23-.96.57-1.41,1.01-.46.45-.89,1.01-1.29,1.71-.4.69-.73,1.5-.98,2.42-.33,1.29-.73,2.73-1.18,4.31-.46,1.58-.92,3.13-1.39,4.64-.47,1.51-.92,2.85-1.35,4.04-.43,1.18-.8,2.01-1.1,2.47-.66,1.01-1.45,1.93-2.37,2.74-.91.82-1.74,1.48-2.49,2.01-.91.62-1.88,1.3-2.89,2.05-1.01.75-2.05,1.46-3.11,2.12-1.07.66-2.14,1.22-3.22,1.66-1.08.45-2.12.67-3.11.67-.25,0-.58-.05-.98-.16-.4-.11-.79-.28-1.16-.51-.37-.23-.7-.55-.98-.95-.28-.4-.41-.89-.41-1.48,0-1.69.17-3.37.5-5.03.33-1.66.73-3.25,1.2-4.77.47-1.52.98-2.94,1.54-4.24.55-1.31,1.04-2.44,1.45-3.39.47-1.11.86-2.06,1.18-2.86.32-.8.48-1.41.48-1.84,0-.71-.06-1.37-.17-1.98-.11-.62-.32-1.17-.62-1.66-.3-.49-.73-.88-1.27-1.15s-1.24-.42-2.1-.42c-.91,0-1.76.28-2.55.83-.79.55-1.61,1.52-2.47,2.91-.55.89-1.1,2.01-1.64,3.34-.54,1.34-1.06,2.79-1.56,4.36-.5,1.57-.97,3.19-1.41,4.87-.44,1.68-.82,3.29-1.14,4.84-.32,1.55-.57,3.01-.75,4.36-.18,1.35-.27,2.49-.27,3.41,0,1.23.26,2.5.77,3.81.51,1.31,1.27,2.51,2.26,3.6,1,1.09,2.23,1.99,3.7,2.7s3.16,1.06,5.07,1.06c.89,0,1.82-.15,2.8-.44.98-.29,1.98-.68,2.99-1.18,1.01-.49,2.03-1.05,3.05-1.68,1.02-.63,2-1.29,2.93-1.98.93-.69,1.81-1.38,2.64-2.05.22-.18.41-.34.61-.51-2.66,8.34-8.88,23.58-20.52,30.88-5.62,3.52-10.63,1.4-11.17.85-1.67-1.84-4.27-3.35-6.14-1.71-1.91,1.66-.18,5.62,1.48,7.53,1.7,1.96,5.38,4.35,10.36,4.35,3.02,0,6.52-.88,10.33-3.28,14.88-9.32,22.07-28.03,24.83-37.22.01-.02.04-.07.05-.09.21-.75.33-1.18.35-1.27.44-1.72.96-3.55,1.54-5.47.58-1.92,1.17-3.84,1.77-5.74.59-1.91,1.19-3.76,1.79-5.56.6-1.8,1.12-3.45,1.58-4.96.46-1.51.84-2.82,1.14-3.94.3-1.12.47-1.95.5-2.47v-.09c0-1.11-.05-2.04-.15-2.79Z"></path>
    </g>
  </g>
  <g>
    <path class="cls-23" d="m469.73,139.55c-4.22-1.14-8.7-2.19-13.44-3.15v10.61h-3.62v-20.73h3.62v6.65c5.69,1.11,10.17,2.12,13.44,3.03v3.59Z"></path>
    <path class="cls-23" d="m497.19,133.51c-.29,4.55-2.14,7.94-5.53,10.19-2.88,1.92-6.76,2.93-11.63,3.03v-3.23c7.11-.34,11.41-2.79,12.91-7.33h-15.89v-3.15h20.14v.49Zm-1.3-3.13h-17.5v-3.28h17.5v3.28Z"></path>
    <path class="cls-23" d="m523.41,126.47c-1.11,3.23-3.2,5.88-6.26,7.97v12.86h-3.67v-10.83c-2.79,1.24-6.05,2.14-9.78,2.69v-3.35c8.29-1.5,13.56-4.61,15.79-9.34h3.91Z"></path>
    <path class="cls-23" d="m550.96,127.77c0,3.68-1.09,6.62-3.28,8.8-1.81,1.79-4.2,2.94-7.19,3.45-1.49,3.57-4.3,5.86-8.46,6.87v-3.35c2.07-.8,3.61-1.95,4.62-3.45,1.08-1.63,1.61-3.78,1.61-6.45v-1.22h3.35v1.39c0,.95-.06,1.83-.17,2.66,3.11-.86,4.96-2.89,5.55-6.09h-15.69v-3.28h19.65v.66Z"></path>
    <path class="cls-23" d="m568.68,132.14c-3.23-.7-6.58-1.17-10.05-1.42v-3.5c3.31.21,6.66.66,10.05,1.35v3.57Zm8.85-1.61c-.47,5.46-2.31,9.48-5.53,12.07-3,2.41-7.37,3.72-13.1,3.91v-3.42c4.61-.34,8.02-1.34,10.24-2.98,2.66-1.96,4.22-5.15,4.69-9.58h3.69Z"></path>
    <path class="cls-23" d="m601.14,139.52c-2.84,4.35-7.49,6.78-13.96,7.28v-3.2c8.05-.9,12.46-5.28,13.22-13.15h-8.95c-.68,1.69-1.68,3.19-2.98,4.5-1.34,1.35-2.84,2.33-4.5,2.93v-3.54c2.51-1.63,4.11-4,4.82-7.11h12.22v-2.32h2.13v2.32h.98v-2.32h2.13v3.5h-2.05c-.15,4.51-1.17,8.22-3.06,11.12Z"></path>
    <path class="cls-23" d="m617.96,133.17c0,4.06-.62,7.26-1.86,9.61-.99,1.89-2.54,3.45-4.64,4.67v-3.98c.98-.96,1.69-2.05,2.15-3.28.6-1.66.9-3.91.9-6.75v-6.58h3.45v6.31Zm14.54-.1c-.41,8.57-4.41,13.13-12,13.69v-19.9h3.4v15.55c1.6-.52,2.84-1.67,3.74-3.45.81-1.6,1.29-3.56,1.44-5.89h3.42Z"></path>
    <path class="cls-23" d="m659.17,140.75h-8.6l.59,6.4h-3.57l-.56-6.4h-9.34v-3.23h9.02l-.37-4.52h-7.85v-3.2h7.55l-.34-3.69h3.57l.29,3.69h8.61v3.2h-8.29l.39,4.52h8.9v3.23Z"></path>
    <path class="cls-23" d="m671.52,138.4h-3.35c-.41-2.82-1.05-5.66-1.93-8.53h3.2c.85,2.58,1.54,5.42,2.08,8.53Zm12.47-8.24c0,5.15-1.2,9.1-3.59,11.86-2.25,2.61-5.65,4.26-10.22,4.96v-3.15c3.8-.78,6.49-2.3,8.09-4.55,1.47-2.07,2.2-5.12,2.2-9.14v-.34h3.52v.37Zm-6.45,8.04h-3.38c-.39-2.79-.99-5.63-1.81-8.53h3.2c.73,2.23,1.39,5.08,1.98,8.53Z"></path>
    <path class="cls-23" d="m712.34,146.96c-3.54-1.29-6.3-3.67-8.29-7.16-3.2,3.55-7.14,5.86-11.83,6.92v-3.37c2.92-.83,5.52-2.31,7.82-4.42,2.56-2.36,4.27-5.14,5.14-8.33h-11.81v-3.3h15.45v-1.91h2v3.62h-1.59c-.47,2.77-1.43,5.33-2.86,7.68,1.09,2.7,3.08,4.9,5.96,6.58v3.72Zm1.42-17.97h-1.98v-3.62h1.98v3.62Z"></path>
  </g>
</svg>
